<?xml version="1.0" encoding="UTF-8"?>
<!DOCTYPE svg PUBLIC "-//W3C//DTD SVG 1.1//EN" "http://www.w3.org/Graphics/SVG/1.1/DTD/svg11.dtd">
<!-- Creator: CorelDRAW X6 -->
<svg xmlns="http://www.w3.org/2000/svg" xml:space="preserve" width="50.3766mm" height="25.146mm" version="1.1" style="shape-rendering:geometricPrecision; text-rendering:geometricPrecision; image-rendering:optimizeQuality; fill-rule:evenodd; clip-rule:evenodd"
viewBox="0 0 5038 2515"
 xmlns:xlink="http://www.w3.org/1999/xlink">
 <defs>
  <style type="text/css">
   <![CDATA[
    .fil0 {fill:#004EA2}
   ]]>
  </style>
 </defs>
 <g id="圖層_x0020_1">
  <metadata id="CorelCorpID_0Corel-Layer"/>
  <path class="fil0" d="M0 1619l520 -758 506 1c69,0 98,-20 130,-66l414 -601c133,-194 169,-176 280,-176l1303 0 193 265 -1088 0c-109,-7 -140,33 -164,80l-353 512 262 2c49,6 68,-36 87,-59l257 -368c56,-84 149,-58 182,-65l1067 -2 282 409 -1351 0c-52,0 -113,16 -167,83l-457 652c-48,54 -81,74 -174,91l-1730 0zm5038 -723l-520 758 -506 -1c-69,0 -98,20 -130,66l-414 601c-133,194 -169,176 -280,176l-1303 0 -193 -265 1088 0c109,7 140,-33 164,-80l353 -512 -262 -2c-49,-6 -68,36 -87,60l-257 368c-56,84 -149,58 -182,65l-1067 2 -282 -409 1351 0c52,0 113,-16 167,-83l457 -652c48,-54 81,-74 174,-91l1730 0z"/>
 </g>
</svg>
