<?xml version="1.0" encoding="UTF-8" standalone="no"?>
<!-- Created with Inkscape (http://www.inkscape.org/) -->

<svg
   xmlns:dc="http://purl.org/dc/elements/1.1/"
   xmlns:cc="http://creativecommons.org/ns#"
   xmlns:rdf="http://www.w3.org/1999/02/22-rdf-syntax-ns#"
   xmlns:svg="http://www.w3.org/2000/svg"
   xmlns="http://www.w3.org/2000/svg"
   xmlns:sodipodi="http://sodipodi.sourceforge.net/DTD/sodipodi-0.dtd"
   xmlns:inkscape="http://www.inkscape.org/namespaces/inkscape"
   version="1.0"
   width="67.999657"
   height="52.2878"
   viewBox="0 0 54.39971 41.830236"
   id="svg3145"
   inkscape:version="0.91 r13725"
   sodipodi:docname="Taoyuan_Metro.svg">
  <defs
     id="defs13" />
  <sodipodi:namedview
     pagecolor="#ffffff"
     bordercolor="#666666"
     borderopacity="1"
     objecttolerance="10"
     gridtolerance="10"
     guidetolerance="10"
     inkscape:pageopacity="0"
     inkscape:pageshadow="2"
     inkscape:window-width="640"
     inkscape:window-height="480"
     id="namedview11"
     showgrid="false"
     inkscape:zoom="4.0294321"
     inkscape:cx="29.656785"
     inkscape:cy="26.6439"
     inkscape:window-x="227"
     inkscape:window-y="49"
     inkscape:window-maximized="0"
     inkscape:current-layer="svg3145" />
  <metadata
     id="metadata3147">
    Created by potrace 1.13, written by Peter Selinger 2001-2015, and reduced by Raymond Wu.
    <rdf:RDF>
  <cc:Work
     rdf:about="">
    <dc:format>image/svg+xml</dc:format>
    <dc:type
       rdf:resource="http://purl.org/dc/dcmitype/StillImage" />
    <dc:title></dc:title>
  </cc:Work>
</rdf:RDF>
</metadata>
  <!-- rect x="0" y="0" width="100" height="100" fill="#000000" / -->
  <g
     transform="matrix(0.03018633,0,0,0.03018633,9.2239506e-7,3.4718359e-6)"
     id="g3024">
    <g
       transform="matrix(0.40779607,0,0,0.40779607,-1.7835316,0)"
       id="layer2"
       style="fill:#333333;stroke:none">
      <!-- 右上半圈 -->
      <path
         d="m 2795,2691 c 336,-87 562,-197 765,-372 224,-193 343,-460 310,-700 -65,-474 -584,-852 -1315,-955 -125,-18 -486,-25 -556,-11 l -35,7 -74,-227 C 1850,307 1802,159 1784,102 l -32,-102 51,6 c 1311,157 2291,630 2553,1232 54,123 67,203 61,356 -7,174 -40,275 -141,430 -258,396 -854,674 -1501,701 l -130,5 150,-39 z"
         transform="translate(0,5.5321746e-5)"
         style="fill:#666666"
         id="path6"
         inkscape:connector-curvature="0" />
      <!-- 左下半圈 -->
      <path
         d="M 2575,3389 C 1562,3265 711,2928 292,2485 156,2342 74,2203 28,2042 -4,1932 -3,1747 28,1636 c 94,-329 392,-616 817,-789 253,-104 533,-162 815,-172 156,-6 161,1 25,30 -202,43 -456,147 -616,250 -185,119 -326,269 -404,430 -56,113 -75,194 -75,315 0,121 19,202 75,315 131,269 426,493 820,624 124,41 314,85 422,97 l 63,7 2,-360 3,-360 145,46 c 80,24 146,45 147,46 1,0 212,654 409,1268 6,19 7,19 -101,6 z"
         id="path8"
         inkscape:connector-curvature="0" />
      <!-- 圈圈內的三撇 -->
      <path
         d="m 2840,2140 c -30,-11 -101,-33 -157,-51 -57,-17 -103,-35 -103,-38 0,-3 39,-20 88,-36 207,-70 471,-223 664,-384 l 96,-81 151,0 c 97,0 151,4 151,10 0,19 -173,191 -275,273 -55,44 -140,107 -190,139 -87,56 -309,171 -350,181 -11,3 -45,-3 -75,-13 z"
         id="path10"
         inkscape:connector-curvature="0" />
      <path
         d="m 2083,1902 c -117,-37 -213,-70 -213,-73 0,-3 39,-11 88,-18 375,-55 777,-234 1066,-475 l 79,-66 199,0 199,0 -19,28 c -29,40 -166,169 -258,242 -224,179 -498,317 -783,396 -69,19 -129,34 -135,33 -6,0 -107,-30 -223,-67 z"
         id="path12"
         inkscape:connector-curvature="0" />
      <path
         d="M 1297,1655 C 962,1550 876,1518 960,1534 c 78,14 419,18 531,7 256,-27 509,-99 739,-212 188,-91 357,-202 476,-312 l 42,-37 218,2 219,3 -110,114 c -189,195 -354,316 -600,436 -255,126 -497,196 -780,228 -31,3 -119,-21 -398,-108 z"
         id="path14"
         inkscape:connector-curvature="0" />
    </g>
  </g>
</svg>
