<?xml version="1.0" encoding="UTF-8" standalone="no"?>
<!-- Created with Inkscape (http://www.inkscape.org/) -->
<svg
   xmlns:dc="http://purl.org/dc/elements/1.1/"
   xmlns:cc="http://web.resource.org/cc/"
   xmlns:rdf="http://www.w3.org/1999/02/22-rdf-syntax-ns#"
   xmlns:svg="http://www.w3.org/2000/svg"
   xmlns="http://www.w3.org/2000/svg"
   xmlns:sodipodi="http://sodipodi.sourceforge.net/DTD/sodipodi-0.dtd"
   xmlns:inkscape="http://www.inkscape.org/namespaces/inkscape"
   width="150"
   height="100"
   id="svg2212"
   sodipodi:version="0.32"
   inkscape:version="0.45"
   sodipodi:modified="true"
   version="1.0">
  <defs
     id="defs2214" />
  <sodipodi:namedview
     id="base"
     pagecolor="#ffffff"
     bordercolor="#666666"
     borderopacity="1.0"
     gridtolerance="10000"
     guidetolerance="10000"
     objecttolerance="10000"
     inkscape:pageopacity="0.0"
     inkscape:pageshadow="2"
     inkscape:zoom="4.1622639"
     inkscape:cx="70.634635"
     inkscape:cy="38.304947"
     inkscape:document-units="px"
     inkscape:current-layer="layer1"
     borderlayer="true"
     showgrid="true"
     inkscape:object-points="true"
     inkscape:object-bbox="true"
     inkscape:object-nodes="true"
     inkscape:grid-points="true"
     inkscape:guide-points="true"
     inkscape:window-width="673"
     inkscape:window-height="577"
     inkscape:window-x="110"
     inkscape:window-y="145" />
  <metadata
     id="metadata2217">
    <rdf:RDF>
      <cc:Work
         rdf:about="">
        <dc:format>image/svg+xml</dc:format>
        <dc:type
           rdf:resource="http://purl.org/dc/dcmitype/StillImage" />
      </cc:Work>
    </rdf:RDF>
  </metadata>
  <rect x="2" y="2" width="146" height="96" rx="20" ry="20" fill="#ffffff" stroke="#777777" stroke-width="4.0" />
  <g
     inkscape:label="Layer 1"
     inkscape:groupmode="layer"
     id="layer1"
     transform="translate(-299,-483)">
    <path
       style="fill:#db5426;overflow:visible"
       d="M 338.16105,547.3911 C 339.18937,545.66845 337.89493,545.50536 337.11319,545.45605 C 323.55118,545.12108 312.30411,553.31786 304.54386,560.06396 C 304.1337,560.41649 304.50089,560.89696 304.93595,560.60692 C 313.80704,554.54247 320.50772,553.25927 331.31681,552.02001 C 334.14786,551.68505 337.08683,549.18603 338.16105,547.3911"
       id="path9" />
    <path
       style="fill:#db5426;overflow:visible"
       d="M 341.73917,534.57616 C 342.64737,532.79247 341.31534,532.72899 340.55655,532.72899 C 327.00284,533.34521 315.61905,542.33007 308.36515,549.60399 C 307.9838,549.98534 308.39688,550.46044 308.77091,550.11913 C 316.40323,543.08007 324.10001,541.4204 334.80899,539.4453 C 337.60294,538.92138 340.78898,536.44823 341.73917,534.57616"
       id="path11" />
    <path
       style="fill:#db5426;overflow:visible"
       d="M 344.65909,522.14696 C 345.51163,520.32909 344.18351,520.30907 343.41886,520.32909 C 329.89395,521.42528 318.41495,530.80321 311.41886,538.32812 C 311.05899,538.73534 311.4589,539.15038 311.85196,538.83007 C 319.62589,532.43505 326.8461,529.67821 337.48282,527.33105 C 340.2587,526.70409 343.80851,524.04247 344.65909,522.14696"
       id="path13" />
    <path
       style="fill:#db5426;overflow:visible"
       d="M 332.48478,512.70312 C 333.18888,510.55614 330.68692,511.16014 329.60196,511.80516 C 325.22208,514.68407 321.50089,518.56298 314.59415,526.45214 C 314.22696,526.87304 314.64493,527.24218 315.038,526.92724 C 321.04581,522.11034 325.24308,520.82128 327.99112,519.0122 C 330.36905,517.44726 331.82901,514.66112 332.48478,512.70312"
       id="path15" />
    <path
       style="fill:#938874;overflow:visible"
       d="M 386.29093,562.53075 C 378.16202,558.79638 369.54581,554.36669 360.61515,552.22021 C 360.15616,552.10937 360.0419,551.58837 360.81534,551.562 C 366.16788,551.37011 380.79483,553.69677 391.9589,556.97802 C 405.66983,561.00829 417.57804,568.2163 422.15909,569.08349 C 422.70206,569.19481 422.53116,569.55321 422.15909,569.6245 C 411.10929,573.03075 396.91105,567.41259 386.29093,562.53075"
       id="path17" />
    <path
       style="fill:#938874;overflow:visible"
       d="M 391.15812,548.66503 C 382.85636,545.35644 372.69425,541.68603 363.64933,540.00927 C 363.19132,539.91405 363.04776,539.40819 363.82023,539.35009 C 369.14542,538.87011 386.57706,540.64696 397.8837,543.33837 C 411.79581,546.65331 424.24796,553.29442 428.88468,553.93212 C 429.42862,554.00439 429.28605,554.35692 428.94327,554.47314 C 418.26554,558.23192 402.00675,552.98241 391.15812,548.66503"
       id="path19" />
    <path
       style="fill:#938874;overflow:visible"
       d="M 396.91105,535.11718 C 388.35148,532.47997 376.01456,529.11425 366.88273,528.15819 C 366.39737,528.08935 366.22452,527.60839 366.99796,527.48534 C 372.26456,526.57519 390.35636,527.60009 401.83487,529.37841 C 415.94718,531.57909 430.83194,538.51806 435.49796,538.79247 C 436.0419,538.82421 435.92667,539.187 435.5839,539.32226 C 425.30655,544.2373 408.07511,538.56933 396.91105,535.11718"
       id="path21" />
    <path
       style="fill:#938874;overflow:visible"
       d="M 411.48136,523.31542 C 402.92179,520.68114 392.4169,518.53417 378.16202,517.45849 C 377.67472,517.42431 377.47452,516.88622 378.24796,516.79735 C 388.49503,515.58935 401.83487,515.50634 413.31339,517.30126 C 427.42569,519.49608 440.59269,523.67821 445.2587,523.94237 C 445.80265,523.98241 445.68839,524.34521 445.34464,524.48534 C 436.84269,529.7954 422.64542,526.76415 411.48136,523.31542"
       id="path23" />
    <path
       style="fill:#db5426;overflow:visible"
       d="M 335.5712,508.64403 C 335.26114,508.81932 334.892,508.37206 335.26114,508.12108 C 340.72257,504.25048 373.29483,481.53612 414.34366,503.49804 C 414.68741,503.67528 414.54386,504.18505 414.11515,504.09618 C 392.33097,499.58739 355.88565,497.65526 335.5712,508.64403"
       id="path25" />
  </g>
</svg>
