<?xml version="1.0" encoding="UTF-8" standalone="no"?>
<!-- Created with Inkscape (http://www.inkscape.org/) -->

<svg
   xmlns:dc="http://purl.org/dc/elements/1.1/"
   xmlns:cc="http://creativecommons.org/ns#"
   xmlns:rdf="http://www.w3.org/1999/02/22-rdf-syntax-ns#"
   xmlns:svg="http://www.w3.org/2000/svg"
   xmlns="http://www.w3.org/2000/svg"
   version="1.1"
   width="179.99901"
   height="172.23254"
   viewBox="0 0 179.99902 172.23255"
   id="Layer_1"
   xml:space="preserve"><metadata
   id="metadata3017"><rdf:RDF><cc:Work
       rdf:about=""><dc:format>image/svg+xml</dc:format><dc:type
         rdf:resource="http://purl.org/dc/dcmitype/StillImage" /><dc:title></dc:title></cc:Work></rdf:RDF></metadata><defs
   id="defs3015" />
<ellipse cx="90" cy="86" rx="90" ry="86" fill="#ffffff" />
<g
   transform="matrix(1.0027639,0,0,1.0027639,-1.9289008e-4,-0.60266226)"
   id="g3003">
	<path
   d="m 91.550173,60.516738 c -2.344613,2.37309 -7.479978,7.657166 -9.356297,9.530323 -2.265511,2.246524 -4.018431,2.439533 -6.321908,2.439533 h -6.986375 c 0,0 18.867637,-18.9942 20.554113,-20.668016 1.819365,-1.816204 3.486858,-2.392073 6.119404,-2.392073 h 29.73956 l -3.29704,-7.261652 H 82.782402 c -3.660886,0 -5.692248,0.838493 -9.125316,4.19562 -3.284357,3.328652 -22.076054,22.180467 -23.759361,23.813152 -2.287658,2.322462 -3.477369,2.521804 -6.549724,2.521804 H 33.286103 L 8.7958313,97.372383 H 62.168169 c 3.885541,0 6.189018,-0.797357 8.840551,-3.493187 2.604067,-2.749619 19.826361,-19.813707 22.212108,-22.13617 2.499648,-2.521801 4.005769,-3.002747 7.198362,-3.002747 h 39.89005 l -5.35052,-12.061618 h -34.8243 c -3.758969,0.0032 -5.628963,0.933416 -8.584247,3.838077 m 86.605077,18.025979 c -16.18447,59.836643 -65.7219,93.816113 -111.668055,93.816113 -41.684093,0 -68.4272155,-29.59401 -66.37686711,-68.23423 H 31.083878 c -2.123122,31.31211 20.342116,53.08759 50.205061,51.79662 32.422711,-1.3574 63.709521,-26.31913 77.755021,-58.374809 l 19.11129,-19.003694"
   id="path3009"
   style="fill:#7ab51d" />
	<path
   d="M 20.452443,75.410241 C 34.501127,43.357727 65.791087,18.399164 98.315056,17.032265 128.20015,15.61474 150.64324,37.387035 148.50429,68.83204 h 30.89129 C 181.42062,30.179172 154.67116,0.601 113.00605,0.601 67.040915,0.601 17.506649,34.561476 1.2747233,94.388621 L 20.452443,75.410241 z m 67.484305,36.950579 c 2.354104,-2.4427 7.448335,-7.56225 9.353132,-9.4544 2.401556,-2.26234 4.14816,-2.43953 6.42317,-2.43953 h 6.89143 c 0,0 -18.886609,18.98154 -20.566757,20.66485 -1.809875,1.81936 -3.493186,2.40474 -6.103584,2.40474 H 54.302175 l 3.217908,7.26165 h 39.159124 c 3.803263,0 5.856783,-0.82901 9.169603,-4.20195 3.28752,-3.32233 22.19313,-22.18364 23.76253,-23.80682 2.27501,-2.3288 3.45838,-2.53131 6.52127,-2.53131 h 10.22324 l 24.4713,-24.673785 h -53.5179 c -3.88552,0 -6.18268,0.791031 -8.81839,3.521664 -2.60092,2.730633 -19.864335,19.772575 -22.212108,22.101361 -2.505982,2.53762 -4.005775,2.99643 -7.068642,2.99643 H 39.165034 l 5.350525,12.06794 h 34.972996 c 3.613421,0 5.505566,-0.90179 8.448193,-3.91084"
   id="path3011"
   style="fill:#006ab2" />
</g>
</svg>
