<?xml version="1.0" encoding="utf-8"?>
<!-- Generator: Adobe Illustrator 16.0.0, SVG Export Plug-In . SVG Version: 6.00 Build 0)  -->
<!DOCTYPE svg PUBLIC "-//W3C//DTD SVG 1.1//EN" "http://www.w3.org/Graphics/SVG/1.1/DTD/svg11.dtd">
<svg version="1.1" id="圖層_1" xmlns="http://www.w3.org/2000/svg" xmlns:xlink="http://www.w3.org/1999/xlink" x="0px" y="0px"
	 width="461.46px" height="460.501px" viewBox="0 0 461.46 460.501" enable-background="new 0 0 461.46 460.501"
	 xml:space="preserve">
<g>
  <circle cx="230" cy="230" r="230" fill="#ffffff" />
	<g>
		<path fill="#0211BB" d="M251.64,199.921h207.9l-1.08-7.32C441.927,91.514,360.704,13.346,259.021,0.841L251.64,0v42.061
			l6.721,0.84c63.976,9.442,118.72,51.03,145.02,110.1l2.641,6.24H251.64v-14.22l0.12-2.04c0.55-5.973,4.481-11.633,9.78-14.4
			l1.86-0.84l36.18-14.22v-41.46l-0.12-1.5c-0.437-2.99-2.552-5.823-5.34-7.02L292.68,63l-7.14-1.859
			c-35.968-8.741-73.595-8.771-109.56,0L168.84,63l-1.439,0.541c-2.788,1.196-4.904,4.029-5.34,7.02l-0.12,1.5v41.46l36.18,14.22
			l1.8,0.84c6.005,3.064,10.041,9.687,9.9,16.44v14.22H55.5l2.64-6.24C84.48,93.844,139.063,52.428,203.1,42.9l6.721-0.84V0
			l-7.32,0.841C100.854,13.308,19.515,91.525,3.061,192.601l-1.08,7.32h207.84v29.939H0l0.12,7.38l0.36,7.381
			c7.917,118.796,103.894,211.753,222.899,215.76l7.38,0.12l7.38-0.12c118.904-3.984,215.059-97.033,222.841-215.76l0.359-7.381
			l0.12-7.38H251.64V199.921z M415.021,271.44l-1.62,6.54l-1.8,6.42c-23.292,77.332-93.478,131.382-174.181,134.16l-6.66,0.12
			l-6.72-0.12c-80.721-2.808-150.821-56.818-174.12-134.16l-1.859-6.42l-1.561-6.54h163.32v22.08l-0.061,2.04
			c-1.019,7.839-6.389,14.048-14.1,15.96l-89.76,21.54l-1.32,0.42c-3.118,1.204-5.321,4.033-5.82,7.32l-0.06,1.38v20.16h264.12
			v-20.16l-0.12-1.38c-0.436-3.242-2.686-6.164-5.76-7.32l-1.32-0.42l-89.76-21.54l-1.98-0.6c-6.619-2.295-11.359-8.401-12.12-15.36
			l-0.12-2.04v-22.08H415.021z"/>
	</g>
</g>
</svg>
